<svg width="136" height="34" viewBox="0 0 136 34" fill="none" xmlns="http://www.w3.org/2000/svg">
<rect width="136" height="34" rx="5" fill="#FCF05B"/>
<path d="M23.698 13.5L21.998 18.1H25.398L23.698 13.5ZM20.998 20.7L19.798 24H16.598L22.098 10H25.298L30.798 24H27.598L26.398 20.7H20.998ZM38.1074 10C38.8274 10 39.4941 10.12 40.1074 10.36C40.7208 10.6 41.2474 10.9333 41.6874 11.36C42.1408 11.7867 42.4874 12.2867 42.7274 12.86C42.9808 13.4333 43.1074 14.0467 43.1074 14.7C43.1074 15.3667 42.9808 15.9867 42.7274 16.56C42.4874 17.1333 42.1408 17.6333 41.6874 18.06C41.2474 18.4733 40.7208 18.8 40.1074 19.04C39.4941 19.28 38.8274 19.4 38.1074 19.4H35.2074V24H32.2074V10H38.1074ZM35.2074 12.7V16.7H38.0074C38.3008 16.7 38.5741 16.6467 38.8274 16.54C39.0941 16.4333 39.3208 16.2933 39.5074 16.12C39.6941 15.9333 39.8408 15.72 39.9474 15.48C40.0541 15.24 40.1074 14.98 40.1074 14.7C40.1074 14.42 40.0541 14.16 39.9474 13.92C39.8408 13.68 39.6941 13.4733 39.5074 13.3C39.3208 13.1133 39.0941 12.9667 38.8274 12.86C38.5741 12.7533 38.3008 12.7 38.0074 12.7H35.2074ZM51.1012 10C51.8212 10 52.4878 10.12 53.1012 10.36C53.7145 10.6 54.2412 10.9333 54.6812 11.36C55.1345 11.7867 55.4812 12.2867 55.7212 12.86C55.9745 13.4333 56.1012 14.0467 56.1012 14.7C56.1012 15.3667 55.9745 15.9867 55.7212 16.56C55.4812 17.1333 55.1345 17.6333 54.6812 18.06C54.2412 18.4733 53.7145 18.8 53.1012 19.04C52.4878 19.28 51.8212 19.4 51.1012 19.4H48.2012V24H45.2012V10H51.1012ZM48.2012 12.7V16.7H51.0012C51.2945 16.7 51.5678 16.6467 51.8212 16.54C52.0878 16.4333 52.3145 16.2933 52.5012 16.12C52.6878 15.9333 52.8345 15.72 52.9412 15.48C53.0478 15.24 53.1012 14.98 53.1012 14.7C53.1012 14.42 53.0478 14.16 52.9412 13.92C52.8345 13.68 52.6878 13.4733 52.5012 13.3C52.3145 13.1133 52.0878 12.9667 51.8212 12.86C51.5678 12.7533 51.2945 12.7 51.0012 12.7H48.2012ZM58.1949 24V10H61.1949V21.3H67.6949V24H58.1949ZM72.6902 16L75.9902 10H79.1902L74.1902 19V24H71.1902V19L66.1902 10H69.3902L72.6902 16ZM96.5902 10V24H93.9902L87.0902 15.1V24H84.0902V10H86.6902L93.5902 18.9V10H96.5902ZM101.884 17C101.884 17.6533 101.997 18.26 102.224 18.82C102.464 19.38 102.784 19.8667 103.184 20.28C103.597 20.6933 104.077 21.02 104.624 21.26C105.171 21.4867 105.757 21.6 106.384 21.6C107.011 21.6 107.597 21.4867 108.144 21.26C108.691 21.02 109.164 20.6933 109.564 20.28C109.977 19.8667 110.297 19.38 110.524 18.82C110.764 18.26 110.884 17.6533 110.884 17C110.884 16.3467 110.764 15.74 110.524 15.18C110.297 14.62 109.977 14.1333 109.564 13.72C109.164 13.3067 108.691 12.9867 108.144 12.76C107.597 12.52 107.011 12.4 106.384 12.4C105.757 12.4 105.171 12.52 104.624 12.76C104.077 12.9867 103.597 13.3067 103.184 13.72C102.784 14.1333 102.464 14.62 102.224 15.18C101.997 15.74 101.884 16.3467 101.884 17ZM98.784 17C98.784 16 98.9773 15.06 99.364 14.18C99.7507 13.2867 100.284 12.5133 100.964 11.86C101.644 11.1933 102.444 10.6667 103.364 10.28C104.297 9.89333 105.304 9.7 106.384 9.7C107.464 9.7 108.464 9.89333 109.384 10.28C110.317 10.6667 111.124 11.1933 111.804 11.86C112.484 12.5133 113.017 13.2867 113.404 14.18C113.791 15.06 113.984 16 113.984 17C113.984 18 113.791 18.9467 113.404 19.84C113.017 20.72 112.484 21.4933 111.804 22.16C111.124 22.8133 110.317 23.3333 109.384 23.72C108.464 24.1067 107.464 24.3 106.384 24.3C105.304 24.3 104.297 24.1067 103.364 23.72C102.444 23.3333 101.644 22.8133 100.964 22.16C100.284 21.4933 99.7507 20.72 99.364 19.84C98.9773 18.9467 98.784 18 98.784 17ZM126.2 10L129.1 19.6L132 10H135.2L130.6 24H127.8L124.8 14.6L121.8 24H119L114.4 10H117.6L120.5 19.6L123.4 10H126.2Z" fill="black"/>
</svg>
