<svg width="100" height="29" viewBox="0 0 100 29" fill="none" xmlns="http://www.w3.org/2000/svg">
<rect x="1" y="1" width="98" height="27" rx="4" fill="#FCF05B"/>
<rect x="1" y="1" width="98" height="27" rx="4" stroke="black" stroke-width="2"/>
<path d="M18.8886 12.65L17.6986 15.87H20.0786L18.8886 12.65ZM16.9986 17.69L16.1586 20H13.9186L17.7686 10.2H20.0086L23.8586 20H21.6186L20.7786 17.69H16.9986ZM28.9752 10.2C29.4792 10.2 29.9459 10.284 30.3752 10.452C30.8045 10.62 31.1732 10.8533 31.4812 11.152C31.7985 11.4507 32.0412 11.8007 32.2092 12.202C32.3865 12.6033 32.4752 13.0327 32.4752 13.49C32.4752 13.9567 32.3865 14.3907 32.2092 14.792C32.0412 15.1933 31.7985 15.5433 31.4812 15.842C31.1732 16.1313 30.8045 16.36 30.3752 16.528C29.9459 16.696 29.4792 16.78 28.9752 16.78H26.9452V20H24.8452V10.2H28.9752ZM26.9452 12.09V14.89H28.9052C29.1105 14.89 29.3019 14.8527 29.4792 14.778C29.6659 14.7033 29.8245 14.6053 29.9552 14.484C30.0859 14.3533 30.1885 14.204 30.2632 14.036C30.3379 13.868 30.3752 13.686 30.3752 13.49C30.3752 13.294 30.3379 13.112 30.2632 12.944C30.1885 12.776 30.0859 12.6313 29.9552 12.51C29.8245 12.3793 29.6659 12.2767 29.4792 12.202C29.3019 12.1273 29.1105 12.09 28.9052 12.09H26.9452ZM38.0708 10.2C38.5748 10.2 39.0415 10.284 39.4708 10.452C39.9002 10.62 40.2688 10.8533 40.5768 11.152C40.8942 11.4507 41.1368 11.8007 41.3048 12.202C41.4822 12.6033 41.5708 13.0327 41.5708 13.49C41.5708 13.9567 41.4822 14.3907 41.3048 14.792C41.1368 15.1933 40.8942 15.5433 40.5768 15.842C40.2688 16.1313 39.9002 16.36 39.4708 16.528C39.0415 16.696 38.5748 16.78 38.0708 16.78H36.0408V20H33.9408V10.2H38.0708ZM36.0408 12.09V14.89H38.0008C38.2062 14.89 38.3975 14.8527 38.5748 14.778C38.7615 14.7033 38.9202 14.6053 39.0508 14.484C39.1815 14.3533 39.2842 14.204 39.3588 14.036C39.4335 13.868 39.4708 13.686 39.4708 13.49C39.4708 13.294 39.4335 13.112 39.3588 12.944C39.2842 12.776 39.1815 12.6313 39.0508 12.51C38.9202 12.3793 38.7615 12.2767 38.5748 12.202C38.3975 12.1273 38.2062 12.09 38.0008 12.09H36.0408ZM43.0364 20V10.2H45.1364V18.11H49.6864V20H43.0364ZM53.1832 14.4L55.4932 10.2H57.7332L54.2332 16.5V20H52.1332V16.5L48.6332 10.2H50.8732L53.1832 14.4ZM69.9132 10.2V20H68.0932L63.2632 13.77V20H61.1632V10.2H62.9832L67.8132 16.43V10.2H69.9132ZM73.6188 15.1C73.6188 15.5573 73.6981 15.982 73.8568 16.374C74.0248 16.766 74.2488 17.1067 74.5288 17.396C74.8181 17.6853 75.1541 17.914 75.5368 18.082C75.9195 18.2407 76.3301 18.32 76.7688 18.32C77.2075 18.32 77.6181 18.2407 78.0008 18.082C78.3835 17.914 78.7148 17.6853 78.9948 17.396C79.2841 17.1067 79.5081 16.766 79.6668 16.374C79.8348 15.982 79.9188 15.5573 79.9188 15.1C79.9188 14.6427 79.8348 14.218 79.6668 13.826C79.5081 13.434 79.2841 13.0933 78.9948 12.804C78.7148 12.5147 78.3835 12.2907 78.0008 12.132C77.6181 11.964 77.2075 11.88 76.7688 11.88C76.3301 11.88 75.9195 11.964 75.5368 12.132C75.1541 12.2907 74.8181 12.5147 74.5288 12.804C74.2488 13.0933 74.0248 13.434 73.8568 13.826C73.6981 14.218 73.6188 14.6427 73.6188 15.1ZM71.4488 15.1C71.4488 14.4 71.5841 13.742 71.8548 13.126C72.1255 12.5007 72.4988 11.9593 72.9748 11.502C73.4508 11.0353 74.0108 10.6667 74.6548 10.396C75.3081 10.1253 76.0128 9.99 76.7688 9.99C77.5248 9.99 78.2248 10.1253 78.8688 10.396C79.5221 10.6667 80.0868 11.0353 80.5628 11.502C81.0388 11.9593 81.4121 12.5007 81.6828 13.126C81.9535 13.742 82.0888 14.4 82.0888 15.1C82.0888 15.8 81.9535 16.4627 81.6828 17.088C81.4121 17.704 81.0388 18.2453 80.5628 18.712C80.0868 19.1693 79.5221 19.5333 78.8688 19.804C78.2248 20.0747 77.5248 20.21 76.7688 20.21C76.0128 20.21 75.3081 20.0747 74.6548 19.804C74.0108 19.5333 73.4508 19.1693 72.9748 18.712C72.4988 18.2453 72.1255 17.704 71.8548 17.088C71.5841 16.4627 71.4488 15.8 71.4488 15.1ZM90.6403 10.2L92.6703 16.92L94.7003 10.2H96.9403L93.7203 20H91.7603L89.6603 13.42L87.5603 20H85.6003L82.3803 10.2H84.6203L86.6503 16.92L88.6803 10.2H90.6403Z" fill="black"/>
</svg>
